# xmcd
#
# Track frame offsets: 
#        187
#        21227
#        39827
#        60460
#        84197
#        104957
#        127897
#        146812
#        168865
#        187862
#        206247
#        222567
#
# Disc length: 3366 seconds
#
# Revision: 1
# Processed by: cddbd v1.5.2PL0 Copyright (c) Steve Scherf et al.
# Submitted via: ExactAudioCopy v1.3
#
DISCID=a80d240c
DTITLE=John Pagano - John Pagano
DYEAR=1992
DGENRE=R&B
TTITLE0=Let´s Get To It
TTITLE1=Heard You're Trying To Leave Me
TTITLE2=Haunted House
TTITLE3=Easy To Love
TTITLE4=Masculinity
TTITLE5=Maybe We Can Fall In Love Again
TTITLE6=Dreamin'
TTITLE7=Leaves Of Love
TTITLE8=Tenderly
TTITLE9=You Know Me
TTITLE10=The Best I Ever Was
TTITLE11=Let's Get To It (Swankin' Club Version]
EXTD=
EXTT0=
EXTT1=
EXTT2=
EXTT3=
EXTT4=
EXTT5=
EXTT6=
EXTT7=
EXTT8=
EXTT9=
EXTT10=
EXTT11=
PLAYORDER=
